<svg xmlns="http://www.w3.org/2000/svg" width="20" height="20" viewBox="0 0 20 20" fill="none">
  <path d="M18.171 8.368h-.67v-.035H10v3.333h4.709A4.998 4.998 0 0 1 5 10a5 5 0 0 1 5-5c1.275 0 2.434.48 3.317 1.266l2.357-2.357A8.295 8.295 0 0 0 10 1.667a8.333 8.333 0 1 0 8.333 8.333c0-.546-.056-1.08-.162-1.632z" fill="#FFC107"/>
  <path d="M2.628 6.121l2.734 2.008a4.998 4.998 0 0 1 4.638-3.13c1.275 0 2.434.482 3.317 1.267l2.357-2.357A8.295 8.295 0 0 0 10 1.667 8.329 8.329 0 0 0 2.628 6.12z" fill="#FF3D00"/>
  <path d="M10 18.333a8.294 8.294 0 0 0 5.587-2.163l-2.579-2.183A4.963 4.963 0 0 1 10 15a4.998 4.998 0 0 1-4.701-3.311L2.58 13.783A8.327 8.327 0 0 0 10 18.333z" fill="#4CAF50"/>
  <path d="M18.171 8.368H17.5v-.034H10v3.333h4.71a5.017 5.017 0 0 1-1.703 2.321l2.58 2.182c-.182.166 2.746-2.003 2.746-6.17 0-.546-.057-1.08-.162-1.632z" fill="#1976D2"/>
</svg>